<svg width="495" height="410" viewBox="0 0 495 410" xmlns="http://www.w3.org/2000/svg" role="img" aria-label="Commit activity across all branches and organizations"><rect x="0.5" y="0.5" width="494" height="409" rx="4.5" fill="#1B1D1E" stroke="#3E3D32"/><text x="25" y="35" font-family="'Segoe UI',Ubuntu,Sans-Serif" font-size="18" font-weight="600" fill="#66D9EF">Commit Activity for All Branches &amp; Orgs</text><text x="25" y="78" font-family="'Segoe UI',Ubuntu,Sans-Serif" font-size="32" font-weight="700" fill="#F8F8F2">507</text><text x="25" y="94" font-family="'Segoe UI',Ubuntu,Sans-Serif" font-size="11" fill="#7E8E91">total commits · 44 repos · since 2023</text><text x="25" y="118" font-family="'Segoe UI',Ubuntu,Sans-Serif" font-size="12" fill="#F8F8F2">cs-465-full-stack-developme…<tspan fill="#7E8E91"> · 72</tspan></text><text x="25" y="140" font-family="'Segoe UI',Ubuntu,Sans-Serif" font-size="12" fill="#F8F8F2">week2<tspan fill="#7E8E91"> · 55</tspan></text><text x="25" y="162" font-family="'Segoe UI',Ubuntu,Sans-Serif" font-size="12" fill="#F8F8F2">capstone-smartgrocery<tspan fill="#7E8E91"> · 48</tspan></text><text x="300" y="106" font-family="'Segoe UI',Ubuntu,Sans-Serif" font-size="11" fill="#7E8E91">last 12 months</text><rect x="300" y="179" width="12" height="11" rx="2" fill="#66D9EF" fill-opacity="0.45"/><rect x="315" y="188" width="12" height="2" rx="2" fill="#66D9EF" fill-opacity="0.35"/><rect x="330" y="120" width="12" height="70" rx="2" fill="#66D9EF" fill-opacity="1.00"/><rect x="345" y="188" width="12" height="2" rx="2" fill="#66D9EF" fill-opacity="0.35"/><rect x="360" y="162" width="12" height="28" rx="2" fill="#66D9EF" fill-opacity="0.61"/><rect x="375" y="188" width="12" height="2" rx="2" fill="#66D9EF" fill-opacity="0.36"/><rect x="390" y="160" width="12" height="30" rx="2" fill="#66D9EF" fill-opacity="0.63"/><rect x="405" y="172" width="12" height="18" rx="2" fill="#66D9EF" fill-opacity="0.52"/><rect x="420" y="172" width="12" height="18" rx="2" fill="#66D9EF" fill-opacity="0.52"/><rect x="435" y="152" width="12" height="38" rx="2" fill="#66D9EF" fill-opacity="0.70"/><rect x="450" y="140" width="12" height="50" rx="2" fill="#66D9EF" fill-opacity="0.81"/><rect x="465" y="181" width="12" height="9" rx="2" fill="#66D9EF" fill-opacity="0.44"/><text x="300" y="206" font-family="'Segoe UI',Ubuntu,Sans-Serif" font-size="10" fill="#7E8E91">08/25</text><text x="477" y="206" font-family="'Segoe UI',Ubuntu,Sans-Serif" font-size="10" fill="#7E8E91" text-anchor="end">07/26</text><text x="25" y="234" font-family="'Segoe UI',Ubuntu,Sans-Serif" font-size="11" fill="#7E8E91">by owner · commits &amp; languages</text><text x="25" y="256" font-family="'Segoe UI',Ubuntu,Sans-Serif" font-size="11" fill="#F8F8F2">Kenzie Academy</text><text x="195" y="256" font-family="'Segoe UI',Ubuntu,Sans-Serif" font-size="11" fill="#7E8E91" text-anchor="end">277</text><clipPath id="row0"><rect x="205" y="247" width="165" height="8" rx="4"/></clipPath><rect x="205" y="247" width="165" height="8" rx="4" fill="#3E3D32"/><g clip-path="url(#row0)"><rect x="205.0" y="247" width="127.2" height="8" fill="#66D9EF"/><rect x="332.2" y="247" width="23.6" height="8" fill="#A6E22E"/><rect x="355.7" y="247" width="8.1" height="8" fill="#F92672"/><rect x="363.8" y="247" width="6.2" height="8" fill="#E6DB74"/></g><text x="380" y="256" font-family="'Segoe UI',Ubuntu,Sans-Serif" font-size="10" fill="#F8F8F2">Java <tspan fill="#7E8E91">77%</tspan></text><text x="25" y="280" font-family="'Segoe UI',Ubuntu,Sans-Serif" font-size="11" fill="#F8F8F2">SNHU</text><text x="195" y="280" font-family="'Segoe UI',Ubuntu,Sans-Serif" font-size="11" fill="#7E8E91" text-anchor="end">146</text><clipPath id="row1"><rect x="205" y="271" width="165" height="8" rx="4"/></clipPath><rect x="205" y="271" width="165" height="8" rx="4" fill="#3E3D32"/><g clip-path="url(#row1)"><rect x="205.0" y="271" width="9.4" height="8" fill="#66D9EF"/><rect x="214.4" y="271" width="33.5" height="8" fill="#A6E22E"/><rect x="247.9" y="271" width="43.3" height="8" fill="#F92672"/><rect x="291.2" y="271" width="10.2" height="8" fill="#FD971F"/><rect x="301.4" y="271" width="32.3" height="8" fill="#AE81FF"/><rect x="333.7" y="271" width="6.9" height="8" fill="#E6DB74"/><rect x="340.6" y="271" width="29.4" height="8" fill="#5F5F5F"/></g><text x="380" y="280" font-family="'Segoe UI',Ubuntu,Sans-Serif" font-size="10" fill="#F8F8F2">JavaScript <tspan fill="#7E8E91">26%</tspan></text><text x="25" y="304" font-family="'Segoe UI',Ubuntu,Sans-Serif" font-size="11" fill="#F8F8F2">NexisOS</text><text x="195" y="304" font-family="'Segoe UI',Ubuntu,Sans-Serif" font-size="11" fill="#7E8E91" text-anchor="end">44</text><clipPath id="row2"><rect x="205" y="295" width="165" height="8" rx="4"/></clipPath><rect x="205" y="295" width="165" height="8" rx="4" fill="#3E3D32"/><g clip-path="url(#row2)"><rect x="205.0" y="295" width="99.0" height="8" fill="#A6E22E"/><rect x="304.0" y="295" width="33.0" height="8" fill="#F92672"/><rect x="337.0" y="295" width="33.0" height="8" fill="#E6DB74"/></g><text x="380" y="304" font-family="'Segoe UI',Ubuntu,Sans-Serif" font-size="10" fill="#F8F8F2">HTML <tspan fill="#7E8E91">60%</tspan></text><text x="25" y="328" font-family="'Segoe UI',Ubuntu,Sans-Serif" font-size="11" fill="#F8F8F2">Personal</text><text x="195" y="328" font-family="'Segoe UI',Ubuntu,Sans-Serif" font-size="11" fill="#7E8E91" text-anchor="end">26</text><clipPath id="row3"><rect x="205" y="319" width="165" height="8" rx="4"/></clipPath><rect x="205" y="319" width="165" height="8" rx="4" fill="#3E3D32"/><g clip-path="url(#row3)"><rect x="205.0" y="319" width="15.7" height="8" fill="#A6E22E"/><rect x="220.7" y="319" width="149.3" height="8" fill="#5F5F5F"/></g><text x="380" y="328" font-family="'Segoe UI',Ubuntu,Sans-Serif" font-size="10" fill="#F8F8F2">Nix <tspan fill="#7E8E91">90%</tspan></text><text x="25" y="352" font-family="'Segoe UI',Ubuntu,Sans-Serif" font-size="11" fill="#F8F8F2">eCornell</text><text x="195" y="352" font-family="'Segoe UI',Ubuntu,Sans-Serif" font-size="11" fill="#7E8E91" text-anchor="end">14</text><clipPath id="row4"><rect x="205" y="343" width="165" height="8" rx="4"/></clipPath><rect x="205" y="343" width="165" height="8" rx="4" fill="#3E3D32"/><g clip-path="url(#row4)"><rect x="205.0" y="343" width="165.0" height="8" fill="#FD971F"/></g><text x="380" y="352" font-family="'Segoe UI',Ubuntu,Sans-Serif" font-size="10" fill="#F8F8F2">Python <tspan fill="#7E8E91">100%</tspan></text><circle cx="29.0" cy="378" r="4" fill="#66D9EF"/><text x="37.0" y="382" font-family="'Segoe UI',Ubuntu,Sans-Serif" font-size="10" fill="#7E8E91">Java</text><circle cx="77.4" cy="378" r="4" fill="#A6E22E"/><text x="85.4" y="382" font-family="'Segoe UI',Ubuntu,Sans-Serif" font-size="10" fill="#7E8E91">HTML</text><circle cx="125.8" cy="378" r="4" fill="#F92672"/><text x="133.8" y="382" font-family="'Segoe UI',Ubuntu,Sans-Serif" font-size="10" fill="#7E8E91">JavaScript</text><circle cx="207.8" cy="378" r="4" fill="#FD971F"/><text x="215.8" y="382" font-family="'Segoe UI',Ubuntu,Sans-Serif" font-size="10" fill="#7E8E91">Python</text><circle cx="267.4" cy="378" r="4" fill="#AE81FF"/><text x="275.4" y="382" font-family="'Segoe UI',Ubuntu,Sans-Serif" font-size="10" fill="#7E8E91">TypeScript</text><circle cx="349.4" cy="378" r="4" fill="#E6DB74"/><text x="357.4" y="382" font-family="'Segoe UI',Ubuntu,Sans-Serif" font-size="10" fill="#7E8E91">CSS</text><circle cx="392.2" cy="378" r="4" fill="#5F5F5F"/><text x="400.2" y="382" font-family="'Segoe UI',Ubuntu,Sans-Serif" font-size="10" fill="#7E8E91">Other</text><text x="25" y="398" font-family="'Segoe UI',Ubuntu,Sans-Serif" font-size="9" fill="#7E8E91">counted from git history · updated weekly</text></svg>