<svg width="495" height="320" viewBox="0 0 495 320" xmlns="http://www.w3.org/2000/svg" role="img" aria-label="Commit activity across all branches and organizations"><rect x="0.5" y="0.5" width="494" height="319" rx="4.5" fill="#1B1D1E" stroke="#3E3D32"/><text x="25" y="35" font-family="'Segoe UI',Ubuntu,Sans-Serif" font-size="18" font-weight="600" fill="#66D9EF">Commit Activity — All Branches &amp; Orgs</text><text x="25" y="78" font-family="'Segoe UI',Ubuntu,Sans-Serif" font-size="32" font-weight="700" fill="#F8F8F2">504</text><text x="25" y="94" font-family="'Segoe UI',Ubuntu,Sans-Serif" font-size="11" fill="#7E8E91">total commits · 44 repos · since 2023</text><text x="25" y="118" font-family="'Segoe UI',Ubuntu,Sans-Serif" font-size="12" fill="#F8F8F2">cs-465-full-stack-developme…<tspan fill="#7E8E91"> · 72</tspan></text><text x="25" y="140" font-family="'Segoe UI',Ubuntu,Sans-Serif" font-size="12" fill="#F8F8F2">week2<tspan fill="#7E8E91"> · 55</tspan></text><text x="25" y="162" font-family="'Segoe UI',Ubuntu,Sans-Serif" font-size="12" fill="#F8F8F2">capstone-smartgrocery<tspan fill="#7E8E91"> · 48</tspan></text><text x="300" y="106" font-family="'Segoe UI',Ubuntu,Sans-Serif" font-size="11" fill="#7E8E91">last 12 months</text><rect x="300" y="179" width="12" height="11" rx="2" fill="#66D9EF" fill-opacity="0.45"/><rect x="315" y="188" width="12" height="2" rx="2" fill="#66D9EF" fill-opacity="0.35"/><rect x="330" y="120" width="12" height="70" rx="2" fill="#66D9EF" fill-opacity="1.00"/><rect x="345" y="188" width="12" height="2" rx="2" fill="#66D9EF" fill-opacity="0.35"/><rect x="360" y="162" width="12" height="28" rx="2" fill="#66D9EF" fill-opacity="0.61"/><rect x="375" y="188" width="12" height="2" rx="2" fill="#66D9EF" fill-opacity="0.36"/><rect x="390" y="160" width="12" height="30" rx="2" fill="#66D9EF" fill-opacity="0.63"/><rect x="405" y="172" width="12" height="18" rx="2" fill="#66D9EF" fill-opacity="0.52"/><rect x="420" y="172" width="12" height="18" rx="2" fill="#66D9EF" fill-opacity="0.52"/><rect x="435" y="152" width="12" height="38" rx="2" fill="#66D9EF" fill-opacity="0.70"/><rect x="450" y="140" width="12" height="50" rx="2" fill="#66D9EF" fill-opacity="0.81"/><rect x="465" y="184" width="12" height="6" rx="2" fill="#66D9EF" fill-opacity="0.41"/><text x="300" y="206" font-family="'Segoe UI',Ubuntu,Sans-Serif" font-size="10" fill="#7E8E91">25/08</text><text x="477" y="206" font-family="'Segoe UI',Ubuntu,Sans-Serif" font-size="10" fill="#7E8E91" text-anchor="end">26/07</text><text x="25" y="238" font-family="'Segoe UI',Ubuntu,Sans-Serif" font-size="11" fill="#7E8E91">languages · by files touched</text><clipPath id="langbar"><rect x="25" y="246" width="445" height="8" rx="4"/></clipPath><rect x="25" y="246" width="445" height="8" rx="4" fill="#3E3D32"/><g clip-path="url(#langbar)"><rect x="25.0" y="246" width="180.6" height="8" fill="#66D9EF"/><rect x="205.6" y="246" width="68.0" height="8" fill="#A6E22E"/><rect x="273.6" y="246" width="55.5" height="8" fill="#F92672"/><rect x="329.0" y="246" width="54.2" height="8" fill="#FD971F"/><rect x="383.3" y="246" width="32.9" height="8" fill="#AE81FF"/></g><circle cx="29" cy="268" r="4" fill="#66D9EF"/><text x="38" y="272" font-family="'Segoe UI',Ubuntu,Sans-Serif" font-size="10" fill="#F8F8F2">Java <tspan fill="#7E8E91">41%</tspan></text><circle cx="119" cy="268" r="4" fill="#A6E22E"/><text x="128" y="272" font-family="'Segoe UI',Ubuntu,Sans-Serif" font-size="10" fill="#F8F8F2">HTML <tspan fill="#7E8E91">15%</tspan></text><circle cx="209" cy="268" r="4" fill="#F92672"/><text x="218" y="272" font-family="'Segoe UI',Ubuntu,Sans-Serif" font-size="10" fill="#F8F8F2">JavaScript <tspan fill="#7E8E91">12%</tspan></text><circle cx="299" cy="268" r="4" fill="#FD971F"/><text x="308" y="272" font-family="'Segoe UI',Ubuntu,Sans-Serif" font-size="10" fill="#F8F8F2">Python <tspan fill="#7E8E91">12%</tspan></text><circle cx="389" cy="268" r="4" fill="#AE81FF"/><text x="398" y="272" font-family="'Segoe UI',Ubuntu,Sans-Serif" font-size="10" fill="#F8F8F2">TypeScript <tspan fill="#7E8E91">7%</tspan></text><text x="25" y="306" font-family="'Segoe UI',Ubuntu,Sans-Serif" font-size="9" fill="#7E8E91">counted from git history · updated weekly</text></svg>