<svg width="495" height="240" viewBox="0 0 495 240"
  xmlns="http://www.w3.org/2000/svg" role="img"
  aria-label="Commit activity across all branches and organizations">
  <rect x="0.5" y="0.5" width="494" height="239" rx="4.5"
    fill="#171717" stroke="#2f2f2f"/>
  <text x="25" y="35" font-family="'Segoe UI',Ubuntu,Sans-Serif" font-size="18" font-weight="600"
    fill="#cc0000">Commit Activity — All Branches &amp; Orgs</text>
  <text x="25" y="78" font-family="'Segoe UI',Ubuntu,Sans-Serif" font-size="32" font-weight="700"
    fill="#c9d1d9">497</text>
  <text x="25" y="94" font-family="'Segoe UI',Ubuntu,Sans-Serif" font-size="11" fill="#8b949e">
    total commits · 43 repos · since 2023</text>
  <text x="25" y="118" font-family="'Segoe UI',Ubuntu,Sans-Serif" font-size="12" fill="#c9d1d9">KyleGortych-SNHU/cs-465-full-stack-development-i<tspan fill="#8b949e">  ·  72 commits</tspan></text><text x="25" y="140" font-family="'Segoe UI',Ubuntu,Sans-Serif" font-size="12" fill="#c9d1d9">KyleGortych-Kenzie-Academy-Group-Work/week2<tspan fill="#8b949e">  ·  55 commits</tspan></text><text x="25" y="162" font-family="'Segoe UI',Ubuntu,Sans-Serif" font-size="12" fill="#c9d1d9">KyleGortych-Kenzie-Academy-Group-Work/capstone-smartgrocery<tspan fill="#8b949e">  ·  48 commits</tspan></text>
  <text x="300" y="106" font-family="'Segoe UI',Ubuntu,Sans-Serif" font-size="11"
    fill="#8b949e">last 12 months</text>
  <rect x="300" y="179" width="12" height="11" rx="2" fill="#cc0000" fill-opacity="0.45"/><rect x="315" y="188" width="12" height="2" rx="2" fill="#cc0000" fill-opacity="0.35"/><rect x="330" y="120" width="12" height="70" rx="2" fill="#cc0000" fill-opacity="1.00"/><rect x="345" y="188" width="12" height="2" rx="2" fill="#cc0000" fill-opacity="0.35"/><rect x="360" y="162" width="12" height="28" rx="2" fill="#cc0000" fill-opacity="0.61"/><rect x="375" y="188" width="12" height="2" rx="2" fill="#cc0000" fill-opacity="0.36"/><rect x="390" y="160" width="12" height="30" rx="2" fill="#cc0000" fill-opacity="0.63"/><rect x="405" y="172" width="12" height="18" rx="2" fill="#cc0000" fill-opacity="0.52"/><rect x="420" y="172" width="12" height="18" rx="2" fill="#cc0000" fill-opacity="0.52"/><rect x="435" y="152" width="12" height="38" rx="2" fill="#cc0000" fill-opacity="0.70"/><rect x="450" y="140" width="12" height="50" rx="2" fill="#cc0000" fill-opacity="0.81"/><rect x="465" y="185" width="12" height="5" rx="2" fill="#cc0000" fill-opacity="0.39"/><text x="300" y="206" font-family="'Segoe UI',Ubuntu,Sans-Serif" font-size="10" fill="#8b949e">25/08</text><text x="477" y="206" font-family="'Segoe UI',Ubuntu,Sans-Serif" font-size="10" fill="#8b949e" text-anchor="end">26/07</text>
  <text x="25" y="226" font-family="'Segoe UI',Ubuntu,Sans-Serif" font-size="9" fill="#8b949e">
    counted from git history · updated weekly</text>
</svg>